<?xml version="1.0" encoding="UTF-8" standalone="no"?>
<svg
   xmlns:dc="http://purl.org/dc/elements/1.1/"
   xmlns:cc="http://creativecommons.org/ns#"
   xmlns:rdf="http://www.w3.org/1999/02/22-rdf-syntax-ns#"
   xmlns:svg="http://www.w3.org/2000/svg"
   xmlns="http://www.w3.org/2000/svg"
   xmlns:sodipodi="http://sodipodi.sourceforge.net/DTD/sodipodi-0.dtd"
   xmlns:inkscape="http://www.inkscape.org/namespaces/inkscape"
   width="1000"
   height="1000"
   viewBox="0 0 264.58333 264.58334"
   version="1.1"
   id="svg8"
   sodipodi:docname="dark.svg"
   inkscape:version="1.0 (b51213c273, 2020-08-10)"
   inkscape:export-filename="/home/iago/Desktop/Offline Drive/Audiovisual Projects/Text Counter/Logo/dark.png"
   inkscape:export-xdpi="95.999992"
   inkscape:export-ydpi="95.999992">
  <defs
     id="defs2">
	
</defs>
  <sodipodi:namedview
     id="base"
     pagecolor="#282a36"
     bordercolor="#666666"
     borderopacity="1.0"
     inkscape:pageopacity="0"
     inkscape:pageshadow="2"
     inkscape:zoom="0.35"
     inkscape:cx="199.4128"
     inkscape:cy="374.89701"
     inkscape:document-units="mm"
     inkscape:current-layer="layer1"
     inkscape:document-rotation="0"
     showgrid="false"
     units="px"
     inkscape:window-width="1366"
     inkscape:window-height="704"
     inkscape:window-x="0"
     inkscape:window-y="27"
     inkscape:window-maximized="1" />
  <metadata
     id="metadata5">
    <rdf:RDF>
      <cc:Work
         rdf:about="">
        <dc:format>image/svg+xml</dc:format>
        <dc:type
           rdf:resource="http://purl.org/dc/dcmitype/StillImage" />
        <dc:title></dc:title>
      </cc:Work>
    </rdf:RDF>
  </metadata>
  <g
     inkscape:label="Layer 1"
     inkscape:groupmode="layer"
     id="layer1">
    <g
       id="g89"
       transform="matrix(0.26458333,0,0,0.26458333,296.63936,77.615659)">
</g>
    <g
       id="g91"
       transform="matrix(0.26458333,0,0,0.26458333,296.63936,77.615659)">
</g>
    <g
       id="g1040"
       transform="matrix(1.1275589,0,0,1.1275589,-18.169699,1.2611763)">
      <circle
         style="fill:#ff79c6;fill-opacity:1;stroke:#000000;stroke-width:0.0264583"
         id="path1006"
         cx="133.01877"
         cy="31.091806"
         r="18.212446" />
      <circle
         style="fill:#6272a4;fill-opacity:1;stroke:#000000;stroke-width:0.0264583"
         id="path989-7"
         cx="84.311783"
         cy="134.0024"
         r="17.058842" />
      <circle
         style="fill:#6272a4;fill-opacity:1;stroke:#000000;stroke-width:0.0264583"
         id="path989"
         cx="183.9962"
         cy="134.06219"
         r="17.058842" />
      <g
         id="g41"
         transform="matrix(0.56117789,0,0,0.56117789,23.299478,6.0665237)"
         style="fill:#f8f8f2;fill-opacity:1">
		<path
   d="M 359.372,138.214 H 207.259 V 94.966 C 228.592,90.053 244.495,70.918 244.495,48.162 244.495,21.657 222.968,0 196.333,0 c -26.635,0 -48.162,21.657 -48.162,48.162 0,22.82 15.903,41.891 37.236,46.804 v 43.249 H 33.295 C 2.782,139.896 -1.808,166.724 0.584,177.261 l 33.099,187.863 c 2.78,15.903 16.549,27.41 32.711,27.41 h 259.943 c 16.162,0 29.931,-11.507 32.711,-27.41 l 33.099,-187.863 c 1.681,-9.762 -1.81,-37.172 -32.775,-39.047 z M 169.958,48.162 c 0,-14.545 11.83,-26.376 26.376,-26.376 14.546,0 26.376,11.83 26.376,26.376 0,14.546 -11.83,26.376 -26.376,26.376 -14.546,0 -26.376,-11.896 -26.376,-26.376 z m 200.598,125.284 -33.099,187.863 c -0.905,5.495 -5.689,9.438 -11.184,9.438 H 66.329 c -5.56,0 -10.279,-3.943 -11.184,-9.438 L 22.111,173.446 c -0.646,-3.426 0.453,-13.382 11.184,-13.382 h 326.077 c 12.089,0.065 11.83,10.021 11.184,13.382 z"
   id="path39"
   style="fill:#f8f8f2;fill-opacity:1" />

	</g>
      <g
         id="g49"
         transform="matrix(0.56117789,0,0,0.56117789,23.299478,6.0665237)"
         style="fill:#f8f8f2;fill-opacity:1">
	<g
   id="g47"
   style="fill:#f8f8f2;fill-opacity:1">
		<path
   d="m 106.733,179.717 c -26.57,0 -48.162,21.657 -48.162,48.162 0,26.57 21.657,48.162 48.162,48.162 26.634,0 48.162,-21.657 48.162,-48.162 0,-26.57 -21.657,-48.162 -48.162,-48.162 z m 0.065,74.473 c -14.545,0 -26.376,-11.83 -26.376,-26.376 0,-14.546 11.83,-26.376 26.376,-26.376 14.546,0 26.376,11.83 26.376,26.376 -0.065,14.61 -11.895,26.376 -26.376,26.376 z"
   id="path45"
   style="fill:#f8f8f2;fill-opacity:1" />

	</g>

</g>
      <g
         id="g55"
         transform="matrix(0.56117789,0,0,0.56117789,23.299478,6.0665237)"
         style="fill:#f8f8f2;fill-opacity:1">
	<g
   id="g53"
   style="fill:#f8f8f2;fill-opacity:1">
		<path
   d="m 284.511,179.717 c -26.57,0 -48.162,21.657 -48.162,48.162 0,26.57 21.657,48.162 48.162,48.162 26.57,0 48.162,-21.657 48.162,-48.162 0,-26.57 -21.592,-48.162 -48.162,-48.162 z m 0,74.473 c -14.545,0 -26.376,-11.83 -26.376,-26.376 0,-14.546 11.83,-26.376 26.376,-26.376 14.545,0 26.376,11.83 26.376,26.376 0,14.546 -11.83,26.376 -26.376,26.376 z"
   id="path51"
   style="fill:#f8f8f2;fill-opacity:1" />

	</g>

</g>
      <g
         id="g61"
         transform="matrix(0.56117789,0,0,0.56117789,23.299478,6.0665237)"
         style="fill:#f8f8f2;fill-opacity:1">
	<g
   id="g59"
   style="fill:#f8f8f2;fill-opacity:1">
		<path
   d="m 265.958,320.517 c -2.069,-5.56 -8.404,-8.404 -14.093,-6.335 -15.58,5.883 -35.297,9.115 -55.531,9.115 -20.234,0 -40.016,-3.232 -55.531,-9.115 -5.624,-2.133 -11.895,0.711 -14.093,6.335 -2.069,5.624 0.711,11.895 6.335,14.093 18.23,6.852 40.081,10.537 63.289,10.537 23.208,0 45.059,-3.62 63.289,-10.537 5.623,-2.069 8.468,-8.404 6.335,-14.093 z"
   id="path57"
   style="fill:#f8f8f2;fill-opacity:1" />

	</g>

</g>
    </g>
    <g
       id="g63"
       transform="matrix(0.26458333,0,0,0.26458333,296.63936,77.615659)">
</g>
    <g
       id="g65"
       transform="matrix(0.26458333,0,0,0.26458333,296.63936,77.615659)">
</g>
    <g
       id="g67"
       transform="matrix(0.26458333,0,0,0.26458333,296.63936,77.615659)">
</g>
    <g
       id="g69"
       transform="matrix(0.26458333,0,0,0.26458333,296.63936,77.615659)">
</g>
    <g
       id="g71"
       transform="matrix(0.26458333,0,0,0.26458333,296.63936,77.615659)">
</g>
    <g
       id="g73"
       transform="matrix(0.26458333,0,0,0.26458333,296.63936,77.615659)">
</g>
    <g
       id="g75"
       transform="matrix(0.26458333,0,0,0.26458333,296.63936,77.615659)">
</g>
    <g
       id="g77"
       transform="matrix(0.26458333,0,0,0.26458333,296.63936,77.615659)">
</g>
    <g
       id="g79"
       transform="matrix(0.26458333,0,0,0.26458333,296.63936,77.615659)">
</g>
    <g
       id="g81"
       transform="matrix(0.26458333,0,0,0.26458333,296.63936,77.615659)">
</g>
    <g
       id="g83"
       transform="matrix(0.26458333,0,0,0.26458333,296.63936,77.615659)">
</g>
    <g
       id="g85"
       transform="matrix(0.26458333,0,0,0.26458333,296.63936,77.615659)">
</g>
    <g
       id="g87"
       transform="matrix(0.26458333,0,0,0.26458333,296.63936,77.615659)">
</g>
  </g>
</svg>
